<svg width="4192" height="4192" viewBox="0 0 4192 4192" fill="none" xmlns="http://www.w3.org/2000/svg">
<g filter="url(#filter0_d_1_844)">
<g filter="url(#filter1_d_1_844)">
<path d="M997.318 2837.89L998.249 2836.95L999.317 2838.02L1041.04 2796.29L1194.73 2642.55C1249.37 2732.27 1317.04 2813.17 1395.12 2882.62V3241.24H2795.58V2881.66C2873.45 2812.19 2940.94 2731.33 2995.41 2641.7L3149.96 2796.29L3191.68 2838.02L3192.74 2836.96L3193.81 2838.02L3235.53 2796.29L3865.98 2165.67C3829.15 3112.1 3050.26 3868.07 2094.81 3868.07C1138.84 3868.07 359.63 3111.29 323.579 2164.15L997.318 2837.89ZM2736.58 3182.24H2736.58V2930.57L2736.58 2930.57V3182.24ZM1164.44 2589.4L999.317 2754.57L999.316 2754.57L1164.44 2589.4L1164.44 2589.4ZM2094.81 323C2811.77 323 3429.3 748.666 3708.49 1361.06L3690.5 1343.07L3648.78 1301.34L3607.05 1343.07L3192.74 1757.49L3010.76 1575.46C2829.61 1257.11 2487.28 1042.41 2094.81 1042.41C1701.03 1042.41 1357.73 1258.54 1177.05 1578.65L998.311 1757.44L584.002 1343.13L542.284 1301.41L500.564 1343.13L479.883 1363.81C758.47 749.94 1376.78 323 2094.81 323Z" fill="#FAFAFA"/>
</g>
<rect width="646.696" height="1290.21" transform="matrix(0.707012 0.707202 -0.707012 0.707202 1454.29 1384.79)" fill="#FAFAFA"/>
<rect width="646.696" height="1290.21" transform="matrix(0.707012 0.707202 -0.707012 0.707202 3648.78 1384.79)" fill="#FAFAFA"/>
<rect width="646.696" height="1290.21" transform="matrix(0.707012 -0.707202 0.707012 0.707202 2279.49 1842.13)" fill="#FAFAFA"/>
<rect x="85" y="1842.13" width="646.696" height="1290.21" transform="rotate(-45 85 1842.13)" fill="#FAFAFA"/>
<path d="M2736.58 3182.24H1454.12V1384.79H2736.58V3182.24ZM1831.76 1430.56L2095.35 1704.41L2358.94 1430.56H1831.76Z" fill="#FAFAFA"/>
</g>
<defs>
<filter id="filter0_d_1_844" x="81" y="323" width="4029" height="3553.07" filterUnits="userSpaceOnUse" color-interpolation-filters="sRGB">
<feFlood flood-opacity="0" result="BackgroundImageFix"/>
<feColorMatrix in="SourceAlpha" type="matrix" values="0 0 0 0 0 0 0 0 0 0 0 0 0 0 0 0 0 0 127 0" result="hardAlpha"/>
<feOffset dy="4"/>
<feGaussianBlur stdDeviation="2"/>
<feComposite in2="hardAlpha" operator="out"/>
<feColorMatrix type="matrix" values="0 0 0 0 0 0 0 0 0 0 0 0 0 0 0 0 0 0 0.25 0"/>
<feBlend mode="normal" in2="BackgroundImageFix" result="effect1_dropShadow_1_844"/>
<feBlend mode="normal" in="SourceGraphic" in2="effect1_dropShadow_1_844" result="shape"/>
</filter>
<filter id="filter1_d_1_844" x="319.579" y="323" width="3550.4" height="3553.07" filterUnits="userSpaceOnUse" color-interpolation-filters="sRGB">
<feFlood flood-opacity="0" result="BackgroundImageFix"/>
<feColorMatrix in="SourceAlpha" type="matrix" values="0 0 0 0 0 0 0 0 0 0 0 0 0 0 0 0 0 0 127 0" result="hardAlpha"/>
<feOffset dy="4"/>
<feGaussianBlur stdDeviation="2"/>
<feComposite in2="hardAlpha" operator="out"/>
<feColorMatrix type="matrix" values="0 0 0 0 0 0 0 0 0 0 0 0 0 0 0 0 0 0 0.25 0"/>
<feBlend mode="normal" in2="BackgroundImageFix" result="effect1_dropShadow_1_844"/>
<feBlend mode="normal" in="SourceGraphic" in2="effect1_dropShadow_1_844" result="shape"/>
</filter>
</defs>
</svg>
